<mxfile host="app.diagrams.net" agent="Mozilla/5.0 (Macintosh; Intel Mac OS X 10_15_7) AppleWebKit/537.36 (KHTML, like Gecko) Chrome/131.0.0.0 Safari/537.36" version="25.0.3">
  <diagram name="第 1 页" id="R8YURKRHeUlcDB6ha7RJ">
    <mxGraphModel dx="1242" dy="1878" grid="1" gridSize="10" guides="1" tooltips="1" connect="1" arrows="1" fold="1" page="1" pageScale="1" pageWidth="827" pageHeight="1169" math="0" shadow="0">
      <root>
        <mxCell id="0" />
        <mxCell id="1" parent="0" />
        <mxCell id="ImryK3UNKVc3aRogpXYe-1" style="edgeStyle=orthogonalEdgeStyle;rounded=0;orthogonalLoop=1;jettySize=auto;html=1;entryX=1;entryY=0.5;entryDx=0;entryDy=0;fontSize=10;" edge="1" parent="1" source="ImryK3UNKVc3aRogpXYe-3" target="ImryK3UNKVc3aRogpXYe-6">
          <mxGeometry relative="1" as="geometry" />
        </mxCell>
        <mxCell id="ImryK3UNKVc3aRogpXYe-2" value="读取基础数据" style="edgeLabel;html=1;align=center;verticalAlign=middle;resizable=0;points=[];fontSize=10;" vertex="1" connectable="0" parent="ImryK3UNKVc3aRogpXYe-1">
          <mxGeometry x="-0.1111" y="3" relative="1" as="geometry">
            <mxPoint y="-3" as="offset" />
          </mxGeometry>
        </mxCell>
        <mxCell id="ImryK3UNKVc3aRogpXYe-3" value="RS&lt;br style=&quot;font-size: 10px;&quot;&gt;DB" style="shape=cylinder3;whiteSpace=wrap;html=1;boundedLbl=1;backgroundOutline=1;size=15;fontSize=10;" vertex="1" parent="1">
          <mxGeometry x="410" y="-600" width="60" height="80" as="geometry" />
        </mxCell>
        <mxCell id="ImryK3UNKVc3aRogpXYe-4" value="大数据&lt;br style=&quot;font-size: 10px;&quot;&gt;DB" style="shape=cylinder3;whiteSpace=wrap;html=1;boundedLbl=1;backgroundOutline=1;size=15;fontSize=10;" vertex="1" parent="1">
          <mxGeometry x="540" y="-600" width="60" height="80" as="geometry" />
        </mxCell>
        <mxCell id="ImryK3UNKVc3aRogpXYe-5" value="同步" style="edgeStyle=orthogonalEdgeStyle;rounded=0;orthogonalLoop=1;jettySize=auto;html=1;entryX=1;entryY=0.5;entryDx=0;entryDy=0;entryPerimeter=0;fontSize=10;" edge="1" parent="1" source="ImryK3UNKVc3aRogpXYe-4" target="ImryK3UNKVc3aRogpXYe-3">
          <mxGeometry relative="1" as="geometry" />
        </mxCell>
        <mxCell id="ImryK3UNKVc3aRogpXYe-6" value="JOB-任务计算" style="ellipse;whiteSpace=wrap;html=1;fontSize=10;" vertex="1" parent="1">
          <mxGeometry x="210" y="-595" width="110" height="70" as="geometry" />
        </mxCell>
        <mxCell id="ImryK3UNKVc3aRogpXYe-7" style="edgeStyle=orthogonalEdgeStyle;rounded=0;orthogonalLoop=1;jettySize=auto;html=1;entryX=0.5;entryY=1;entryDx=0;entryDy=0;entryPerimeter=0;fontSize=10;" edge="1" parent="1" source="ImryK3UNKVc3aRogpXYe-6" target="ImryK3UNKVc3aRogpXYe-3">
          <mxGeometry relative="1" as="geometry">
            <Array as="points">
              <mxPoint x="265" y="-500" />
              <mxPoint x="440" y="-500" />
            </Array>
          </mxGeometry>
        </mxCell>
        <mxCell id="ImryK3UNKVc3aRogpXYe-8" value="写入汇总数据" style="edgeLabel;html=1;align=center;verticalAlign=middle;resizable=0;points=[];fontSize=10;" vertex="1" connectable="0" parent="ImryK3UNKVc3aRogpXYe-7">
          <mxGeometry x="0.0182" y="3" relative="1" as="geometry">
            <mxPoint x="-2" y="3" as="offset" />
          </mxGeometry>
        </mxCell>
        <mxCell id="ImryK3UNKVc3aRogpXYe-9" value="数据问题：&lt;br style=&quot;font-size: 10px;&quot;&gt;1、存在数据同步问题&lt;br style=&quot;font-size: 10px;&quot;&gt;2、数据层层加工计算逻辑 或 时序问题&lt;br style=&quot;font-size: 10px;&quot;&gt;&lt;div style=&quot;font-size: 10px;&quot;&gt;3、问题排查流程长&lt;br style=&quot;font-size: 10px;&quot;&gt;&lt;br style=&quot;font-size: 10px;&quot;&gt;开发能效问题：&lt;/div&gt;&lt;div style=&quot;font-size: 10px;&quot;&gt;1、&lt;/div&gt;" style="text;html=1;align=left;verticalAlign=top;whiteSpace=wrap;rounded=0;fontSize=10;" vertex="1" parent="1">
          <mxGeometry x="111" y="730" width="319" height="200" as="geometry" />
        </mxCell>
        <mxCell id="ImryK3UNKVc3aRogpXYe-10" style="edgeStyle=orthogonalEdgeStyle;rounded=0;orthogonalLoop=1;jettySize=auto;html=1;entryX=0;entryY=0.5;entryDx=0;entryDy=0;fontSize=10;" edge="1" parent="1" source="ImryK3UNKVc3aRogpXYe-14" target="ImryK3UNKVc3aRogpXYe-16">
          <mxGeometry relative="1" as="geometry" />
        </mxCell>
        <mxCell id="ImryK3UNKVc3aRogpXYe-11" style="edgeStyle=orthogonalEdgeStyle;rounded=0;orthogonalLoop=1;jettySize=auto;html=1;entryX=0;entryY=0.5;entryDx=0;entryDy=0;fontSize=10;" edge="1" parent="1" source="ImryK3UNKVc3aRogpXYe-14" target="ImryK3UNKVc3aRogpXYe-21">
          <mxGeometry relative="1" as="geometry" />
        </mxCell>
        <mxCell id="ImryK3UNKVc3aRogpXYe-12" style="edgeStyle=orthogonalEdgeStyle;rounded=0;orthogonalLoop=1;jettySize=auto;html=1;entryX=0;entryY=0.5;entryDx=0;entryDy=0;fontSize=10;" edge="1" parent="1" source="ImryK3UNKVc3aRogpXYe-14" target="ImryK3UNKVc3aRogpXYe-23">
          <mxGeometry relative="1" as="geometry" />
        </mxCell>
        <mxCell id="ImryK3UNKVc3aRogpXYe-13" style="edgeStyle=orthogonalEdgeStyle;rounded=0;orthogonalLoop=1;jettySize=auto;html=1;exitX=1;exitY=0.5;exitDx=0;exitDy=0;entryX=0;entryY=0.5;entryDx=0;entryDy=0;fontSize=10;" edge="1" parent="1" source="ImryK3UNKVc3aRogpXYe-14" target="ImryK3UNKVc3aRogpXYe-25">
          <mxGeometry relative="1" as="geometry" />
        </mxCell>
        <mxCell id="ImryK3UNKVc3aRogpXYe-14" value="数据统计接口" style="ellipse;whiteSpace=wrap;html=1;fontSize=10;" vertex="1" parent="1">
          <mxGeometry x="200" y="-220" width="80" height="50" as="geometry" />
        </mxCell>
        <mxCell id="ImryK3UNKVc3aRogpXYe-15" value="" style="edgeStyle=orthogonalEdgeStyle;rounded=0;orthogonalLoop=1;jettySize=auto;html=1;fontSize=10;" edge="1" parent="1" source="ImryK3UNKVc3aRogpXYe-16" target="ImryK3UNKVc3aRogpXYe-26">
          <mxGeometry relative="1" as="geometry" />
        </mxCell>
        <mxCell id="ImryK3UNKVc3aRogpXYe-16" value="首页" style="ellipse;whiteSpace=wrap;html=1;fontSize=10;" vertex="1" parent="1">
          <mxGeometry x="350" y="-270" width="50" height="30" as="geometry" />
        </mxCell>
        <mxCell id="ImryK3UNKVc3aRogpXYe-17" value="" style="edgeStyle=orthogonalEdgeStyle;rounded=0;orthogonalLoop=1;jettySize=auto;html=1;fontSize=10;" edge="1" parent="1" source="ImryK3UNKVc3aRogpXYe-18" target="ImryK3UNKVc3aRogpXYe-19">
          <mxGeometry relative="1" as="geometry" />
        </mxCell>
        <mxCell id="ImryK3UNKVc3aRogpXYe-18" value="HOLO" style="shape=cylinder3;whiteSpace=wrap;html=1;boundedLbl=1;backgroundOutline=1;size=15;fontSize=10;" vertex="1" parent="1">
          <mxGeometry x="970" y="-590" width="60" height="80" as="geometry" />
        </mxCell>
        <mxCell id="ImryK3UNKVc3aRogpXYe-19" value="API-Gateway" style="whiteSpace=wrap;html=1;fontSize=10;" vertex="1" parent="1">
          <mxGeometry x="800" y="-580" width="120" height="60" as="geometry" />
        </mxCell>
        <mxCell id="ImryK3UNKVc3aRogpXYe-20" style="edgeStyle=orthogonalEdgeStyle;rounded=0;orthogonalLoop=1;jettySize=auto;html=1;entryX=0;entryY=0.5;entryDx=0;entryDy=0;fontSize=10;" edge="1" parent="1" source="ImryK3UNKVc3aRogpXYe-21" target="ImryK3UNKVc3aRogpXYe-28">
          <mxGeometry relative="1" as="geometry" />
        </mxCell>
        <mxCell id="ImryK3UNKVc3aRogpXYe-21" value="战报" style="ellipse;whiteSpace=wrap;html=1;fontSize=10;" vertex="1" parent="1">
          <mxGeometry x="350" y="-230" width="50" height="30" as="geometry" />
        </mxCell>
        <mxCell id="ImryK3UNKVc3aRogpXYe-22" style="edgeStyle=orthogonalEdgeStyle;rounded=0;orthogonalLoop=1;jettySize=auto;html=1;entryX=0;entryY=0.5;entryDx=0;entryDy=0;fontSize=10;" edge="1" parent="1" source="ImryK3UNKVc3aRogpXYe-23" target="ImryK3UNKVc3aRogpXYe-27">
          <mxGeometry relative="1" as="geometry" />
        </mxCell>
        <mxCell id="ImryK3UNKVc3aRogpXYe-23" value="排行" style="ellipse;whiteSpace=wrap;html=1;fontSize=10;" vertex="1" parent="1">
          <mxGeometry x="350" y="-190" width="50" height="30" as="geometry" />
        </mxCell>
        <mxCell id="ImryK3UNKVc3aRogpXYe-24" style="edgeStyle=orthogonalEdgeStyle;rounded=0;orthogonalLoop=1;jettySize=auto;html=1;entryX=0;entryY=0.5;entryDx=0;entryDy=0;fontSize=10;" edge="1" parent="1" source="ImryK3UNKVc3aRogpXYe-25" target="ImryK3UNKVc3aRogpXYe-29">
          <mxGeometry relative="1" as="geometry" />
        </mxCell>
        <mxCell id="ImryK3UNKVc3aRogpXYe-25" value="等等" style="ellipse;whiteSpace=wrap;html=1;fontSize=10;" vertex="1" parent="1">
          <mxGeometry x="350" y="-150" width="50" height="30" as="geometry" />
        </mxCell>
        <mxCell id="ImryK3UNKVc3aRogpXYe-26" value="首页功能实现" style="whiteSpace=wrap;html=1;fontSize=10;" vertex="1" parent="1">
          <mxGeometry x="445" y="-266.25" width="85" height="22.5" as="geometry" />
        </mxCell>
        <mxCell id="ImryK3UNKVc3aRogpXYe-27" value="排行功能实现" style="whiteSpace=wrap;html=1;fontSize=10;" vertex="1" parent="1">
          <mxGeometry x="445" y="-186.25" width="85" height="22.5" as="geometry" />
        </mxCell>
        <mxCell id="ImryK3UNKVc3aRogpXYe-28" value="战报功能实现" style="whiteSpace=wrap;html=1;fontSize=10;" vertex="1" parent="1">
          <mxGeometry x="445" y="-226.25" width="85" height="22.5" as="geometry" />
        </mxCell>
        <mxCell id="ImryK3UNKVc3aRogpXYe-29" value="其他功能实现" style="whiteSpace=wrap;html=1;fontSize=10;" vertex="1" parent="1">
          <mxGeometry x="445" y="-146.25" width="85" height="22.5" as="geometry" />
        </mxCell>
        <mxCell id="ImryK3UNKVc3aRogpXYe-30" value="" style="shape=flexArrow;endArrow=classic;html=1;rounded=0;fontSize=10;" edge="1" parent="1">
          <mxGeometry width="50" height="50" relative="1" as="geometry">
            <mxPoint x="670" y="-550.63" as="sourcePoint" />
            <mxPoint x="740" y="-550.63" as="targetPoint" />
          </mxGeometry>
        </mxCell>
        <mxCell id="ImryK3UNKVc3aRogpXYe-31" value="RS&lt;br style=&quot;font-size: 10px;&quot;&gt;DB" style="shape=cylinder3;whiteSpace=wrap;html=1;boundedLbl=1;backgroundOutline=1;size=15;fontSize=10;" vertex="1" parent="1">
          <mxGeometry x="600" y="-223.75" width="40" height="60" as="geometry" />
        </mxCell>
        <mxCell id="ImryK3UNKVc3aRogpXYe-32" style="edgeStyle=orthogonalEdgeStyle;rounded=0;orthogonalLoop=1;jettySize=auto;html=1;entryX=0;entryY=0;entryDx=0;entryDy=37.5;entryPerimeter=0;fontSize=10;" edge="1" parent="1" source="ImryK3UNKVc3aRogpXYe-28" target="ImryK3UNKVc3aRogpXYe-31">
          <mxGeometry relative="1" as="geometry" />
        </mxCell>
        <mxCell id="ImryK3UNKVc3aRogpXYe-33" style="edgeStyle=orthogonalEdgeStyle;rounded=0;orthogonalLoop=1;jettySize=auto;html=1;entryX=0;entryY=0;entryDx=0;entryDy=37.5;entryPerimeter=0;fontSize=10;" edge="1" parent="1" source="ImryK3UNKVc3aRogpXYe-26" target="ImryK3UNKVc3aRogpXYe-31">
          <mxGeometry relative="1" as="geometry" />
        </mxCell>
        <mxCell id="ImryK3UNKVc3aRogpXYe-34" style="edgeStyle=orthogonalEdgeStyle;rounded=0;orthogonalLoop=1;jettySize=auto;html=1;entryX=0;entryY=0;entryDx=0;entryDy=37.5;entryPerimeter=0;fontSize=10;" edge="1" parent="1" source="ImryK3UNKVc3aRogpXYe-27" target="ImryK3UNKVc3aRogpXYe-31">
          <mxGeometry relative="1" as="geometry" />
        </mxCell>
        <mxCell id="ImryK3UNKVc3aRogpXYe-35" style="edgeStyle=orthogonalEdgeStyle;rounded=0;orthogonalLoop=1;jettySize=auto;html=1;entryX=0;entryY=0;entryDx=0;entryDy=37.5;entryPerimeter=0;fontSize=10;" edge="1" parent="1" source="ImryK3UNKVc3aRogpXYe-29" target="ImryK3UNKVc3aRogpXYe-31">
          <mxGeometry relative="1" as="geometry" />
        </mxCell>
        <mxCell id="ImryK3UNKVc3aRogpXYe-36" value="" style="shape=flexArrow;endArrow=classic;html=1;rounded=0;fontSize=10;" edge="1" parent="1">
          <mxGeometry width="50" height="50" relative="1" as="geometry">
            <mxPoint x="680" y="-210" as="sourcePoint" />
            <mxPoint x="750" y="-210" as="targetPoint" />
          </mxGeometry>
        </mxCell>
        <mxCell id="ImryK3UNKVc3aRogpXYe-37" style="edgeStyle=orthogonalEdgeStyle;rounded=0;orthogonalLoop=1;jettySize=auto;html=1;entryX=0;entryY=0.5;entryDx=0;entryDy=0;fontSize=10;" edge="1" parent="1" source="ImryK3UNKVc3aRogpXYe-41" target="ImryK3UNKVc3aRogpXYe-42">
          <mxGeometry relative="1" as="geometry" />
        </mxCell>
        <mxCell id="ImryK3UNKVc3aRogpXYe-38" style="edgeStyle=orthogonalEdgeStyle;rounded=0;orthogonalLoop=1;jettySize=auto;html=1;entryX=0;entryY=0.5;entryDx=0;entryDy=0;fontSize=10;" edge="1" parent="1" source="ImryK3UNKVc3aRogpXYe-41" target="ImryK3UNKVc3aRogpXYe-43">
          <mxGeometry relative="1" as="geometry" />
        </mxCell>
        <mxCell id="ImryK3UNKVc3aRogpXYe-39" style="edgeStyle=orthogonalEdgeStyle;rounded=0;orthogonalLoop=1;jettySize=auto;html=1;entryX=0;entryY=0.5;entryDx=0;entryDy=0;fontSize=10;" edge="1" parent="1" source="ImryK3UNKVc3aRogpXYe-41" target="ImryK3UNKVc3aRogpXYe-45">
          <mxGeometry relative="1" as="geometry" />
        </mxCell>
        <mxCell id="ImryK3UNKVc3aRogpXYe-40" style="edgeStyle=orthogonalEdgeStyle;rounded=0;orthogonalLoop=1;jettySize=auto;html=1;exitX=1;exitY=0.5;exitDx=0;exitDy=0;entryX=0;entryY=0.5;entryDx=0;entryDy=0;fontSize=10;" edge="1" parent="1" source="ImryK3UNKVc3aRogpXYe-41" target="ImryK3UNKVc3aRogpXYe-47">
          <mxGeometry relative="1" as="geometry" />
        </mxCell>
        <mxCell id="ImryK3UNKVc3aRogpXYe-41" value="数据统计接口" style="ellipse;whiteSpace=wrap;html=1;fontSize=10;" vertex="1" parent="1">
          <mxGeometry x="790" y="-230" width="80" height="50" as="geometry" />
        </mxCell>
        <mxCell id="ImryK3UNKVc3aRogpXYe-42" value="通用类" style="ellipse;whiteSpace=wrap;html=1;fontSize=10;" vertex="1" parent="1">
          <mxGeometry x="940" y="-280" width="50" height="30" as="geometry" />
        </mxCell>
        <mxCell id="ImryK3UNKVc3aRogpXYe-43" value="战报" style="ellipse;whiteSpace=wrap;html=1;fontSize=10;" vertex="1" parent="1">
          <mxGeometry x="940" y="-240" width="50" height="30" as="geometry" />
        </mxCell>
        <mxCell id="ImryK3UNKVc3aRogpXYe-44" style="edgeStyle=orthogonalEdgeStyle;rounded=0;orthogonalLoop=1;jettySize=auto;html=1;entryX=0;entryY=0.5;entryDx=0;entryDy=0;fontSize=10;" edge="1" parent="1" source="ImryK3UNKVc3aRogpXYe-45">
          <mxGeometry relative="1" as="geometry">
            <mxPoint x="1035" y="-185" as="targetPoint" />
          </mxGeometry>
        </mxCell>
        <mxCell id="ImryK3UNKVc3aRogpXYe-45" value="排行" style="ellipse;whiteSpace=wrap;html=1;fontSize=10;" vertex="1" parent="1">
          <mxGeometry x="940" y="-200" width="50" height="30" as="geometry" />
        </mxCell>
        <mxCell id="ImryK3UNKVc3aRogpXYe-46" style="edgeStyle=orthogonalEdgeStyle;rounded=0;orthogonalLoop=1;jettySize=auto;html=1;entryX=0;entryY=0.5;entryDx=0;entryDy=0;fontSize=10;" edge="1" parent="1" source="ImryK3UNKVc3aRogpXYe-47" target="ImryK3UNKVc3aRogpXYe-48">
          <mxGeometry relative="1" as="geometry">
            <mxPoint x="1035" y="-145" as="targetPoint" />
          </mxGeometry>
        </mxCell>
        <mxCell id="ImryK3UNKVc3aRogpXYe-47" value="等等" style="ellipse;whiteSpace=wrap;html=1;fontSize=10;" vertex="1" parent="1">
          <mxGeometry x="940" y="-160" width="50" height="30" as="geometry" />
        </mxCell>
        <mxCell id="ImryK3UNKVc3aRogpXYe-48" value="数据通用能力" style="whiteSpace=wrap;html=1;verticalAlign=top;align=left;fontSize=10;" vertex="1" parent="1">
          <mxGeometry x="1070" y="-266.25" width="380" height="126.25" as="geometry" />
        </mxCell>
        <mxCell id="ImryK3UNKVc3aRogpXYe-49" value="配置化能力" style="rounded=0;whiteSpace=wrap;html=1;fontSize=10;verticalAlign=top;align=center;" vertex="1" parent="1">
          <mxGeometry x="1090" y="-235" width="170" height="75" as="geometry" />
        </mxCell>
        <mxCell id="ImryK3UNKVc3aRogpXYe-50" value="扩展能力" style="rounded=0;whiteSpace=wrap;html=1;fontSize=10;verticalAlign=top;" vertex="1" parent="1">
          <mxGeometry x="1270" y="-235" width="160" height="75" as="geometry" />
        </mxCell>
        <mxCell id="ImryK3UNKVc3aRogpXYe-51" value="获取模版信息" style="rounded=0;whiteSpace=wrap;html=1;fontSize=10;" vertex="1" parent="1">
          <mxGeometry x="1105" y="-203.75" width="65" height="33.75" as="geometry" />
        </mxCell>
        <mxCell id="ImryK3UNKVc3aRogpXYe-52" value="基于模版&lt;br&gt;请求数据" style="rounded=0;whiteSpace=wrap;html=1;fontSize=10;" vertex="1" parent="1">
          <mxGeometry x="1180" y="-203.75" width="67.5" height="33.75" as="geometry" />
        </mxCell>
        <mxCell id="ImryK3UNKVc3aRogpXYe-53" value="动态配置处理" style="rounded=0;whiteSpace=wrap;html=1;fontSize=10;" vertex="1" parent="1">
          <mxGeometry x="1280" y="-203.75" width="67.5" height="33.75" as="geometry" />
        </mxCell>
        <mxCell id="ImryK3UNKVc3aRogpXYe-54" value="扩展数据处理" style="rounded=0;whiteSpace=wrap;html=1;fontSize=10;" vertex="1" parent="1">
          <mxGeometry x="1360" y="-203.75" width="67.5" height="33.75" as="geometry" />
        </mxCell>
        <mxCell id="ImryK3UNKVc3aRogpXYe-55" value="todo:&lt;div&gt;1、数据加工流程改造&lt;/div&gt;&lt;div&gt;2、后端开发模式变化&lt;/div&gt;&lt;div&gt;3、前后端定义动态返回参数定义&lt;br&gt;4、移动端混合架构改造&lt;/div&gt;" style="text;html=1;align=left;verticalAlign=top;resizable=0;points=[];autosize=1;strokeColor=none;fillColor=none;" vertex="1" parent="1">
          <mxGeometry x="220" y="-910" width="200" height="90" as="geometry" />
        </mxCell>
      </root>
    </mxGraphModel>
  </diagram>
</mxfile>
